<?xml version="1.0" encoding="UTF-8"?>
<!-- Generator: Adobe Illustrator 16.0.4, SVG Export Plug-In . SVG Version: 6.00 Build 0)  -->
<svg width="219" height="246" enable-background="new 0 0 306 344.35" version="1.1" viewBox="0 0 219 246" xml:space="preserve" xmlns="http://www.w3.org/2000/svg"><g stroke-width=".71439">
<path d="m215.82 184.5c1.7153-2.9712 2.7811-6.3188 2.7811-9.325v-104.35c0-3.0062-1.0644-6.3531-2.7804-9.3242l-106.52 61.5z" fill="#00599c"/>
<path d="m118.77 243.75 90.371-52.175c2.6032-1.5031 4.9693-4.0985 6.6846-7.0703l-106.52-61.5-106.52 61.501c1.7153 2.9712 4.082 5.5673 6.6846 7.0696l90.371 52.175c5.2058 3.0062 13.726 3.0062 18.931 0z" fill="#004482"/>
<path d="m215.82 61.5c-1.716-2.9719-4.0828-5.5673-6.6853-7.0703l-90.371-52.175c-5.2058-3.0062-13.726-3.0062-18.931 0l-90.371 52.175c-5.2065 3.0054-9.4657 10.384-9.4657 16.395v104.35c0 3.0062 1.0652 6.3538 2.7811 9.325l106.52-61.5z" fill="#659ad2"/>
</g><g transform="scale(.71439)" fill="#fff">
	<path d="m153 274.18c-56.243 0-102-45.757-102-102s45.757-102 102-102c36.292 0 70.139 19.53 88.331 50.968l-44.143 25.544c-9.105-15.736-26.038-25.512-44.188-25.512-28.122 0-51 22.878-51 51 0 28.121 22.878 51 51 51 18.152 0 35.085-9.776 44.191-25.515l44.143 25.543c-18.192 31.441-52.04 50.972-88.334 50.972z"/>


	<polygon points="232.33 166.51 221 166.51 221 177.84 232.33 177.84 232.33 189.18 243.67 189.18 243.67 177.84 255 177.84 255 166.51 243.67 166.51 243.67 155.18 232.33 155.18"/>


	<polygon points="274.83 166.51 263.5 166.51 263.5 177.84 274.83 177.84 274.83 189.18 286.17 189.18 286.17 177.84 297.5 177.84 297.5 166.51 286.17 166.51 286.17 155.18 274.83 155.18"/>
</g>
</svg>
