<svg xmlns="http://www.w3.org/2000/svg" width="400" height="245" viewBox="0 0 300 183.75" xmlns:v="https://vecta.io/nano"><defs><clipPath id="A"><path d="M239.03 226.6l-42.13 24.317c-1.578.91-2.546 2.59-2.546 4.406v48.668c0 1.817.968 3.496 2.546 4.406l42.133 24.336a5.1 5.1 0 0 0 5.09 0l42.126-24.336c1.57-.91 2.54-2.59 2.54-4.406v-48.668c0-1.816-.97-3.496-2.55-4.406l-42.12-24.317c-.79-.453-1.67-.68-2.55-.68s-1.76.227-2.55.68"/></clipPath><linearGradient id="B" x1="271.967" x2="211.101" gradientUnits="userSpaceOnUse" y1="217.607" y2="341.773"><stop stop-color="#3e863d" offset=".3"/><stop stop-color="#55934f" offset=".5"/><stop stop-color="#5aad45" offset=".8"/></linearGradient><clipPath id="C"><path d="M195.4 307.09a5.1 5.1 0 0 0 1.5 1.316l36.14 20.875 6.02 3.46c.9.52 1.926.74 2.934.665.336-.027.672-.09 1-.183l44.434-81.36c-.34-.37-.738-.68-1.184-.94l-27.586-15.93-14.582-8.39c-.414-.24-.863-.41-1.32-.53z"/></clipPath><linearGradient id="D" x1="186.485" x2="297.353" gradientUnits="userSpaceOnUse" y1="321.376" y2="239.46"><stop stop-color="#3e863d" offset=".57"/><stop stop-color="#619857" offset=".72"/><stop stop-color="#76ac64" offset="1"/></linearGradient><clipPath id="E"><path d="M241.07 225.95a5.14 5.14 0 0 0-2.035.652l-42.01 24.247 45.3 82.51c.63-.09 1.25-.3 1.81-.624l42.13-24.336c1.3-.754 2.19-2.03 2.46-3.476l-46.18-78.89a5.29 5.29 0 0 0-1.03-.102l-.42.02"/></clipPath><linearGradient id="F" x1="197.049" x2="288.718" gradientUnits="userSpaceOnUse" y1="279.65" y2="279.65"><stop stop-color="#6bbf47" offset=".16"/><stop stop-color="#79b461" offset=".38"/><stop stop-color="#75ac64" offset=".47"/><stop stop-color="#659e5a" offset=".7"/><stop stop-color="#3e863d" offset=".9"/></linearGradient></defs><g fill="#689f63"><path d="M148.28 183.74a5.7 5.7 0 0 1-2.841-.76l-9.045-5.355c-1.351-.755-.692-1.023-.246-1.177 1.801-.631 2.167-.773 4.089-1.865.202-.115.467-.075.673.048l6.948 4.123c.251.136.607.136.84 0l27.093-15.639c.251-.142.414-.434.414-.732V131.12a.87.87 0 0 0-.419-.746l-27.082-15.625c-.251-.149-.583-.149-.834 0l-27.076 15.625c-.262.149-.429.441-.429.739v31.263c0 .298.163.583.42.726l7.419 4.286c4.028 2.014 6.49-.359 6.49-2.747v-30.857c0-.441.346-.78.787-.78h3.432c.427 0 .78.339.78.78v30.87c0 5.371-2.93 8.457-8.023 8.457-1.567 0-2.801 0-6.246-1.695l-7.107-4.096a5.73 5.73 0 0 1-2.841-4.944v-31.263c0-2.035 1.085-3.933 2.841-4.937l27.12-15.645c1.716-.97 3.994-.97 5.697 0l27.086 15.652c1.75 1.01 2.841 2.903 2.841 4.937v31.263c0 2.028-1.092 3.92-2.841 4.937l-27.086 15.645c-.868.502-1.851.76-2.855.76"/><path d="M156.65 162.19c-11.854 0-14.34-5.442-14.34-10.006a.78.78 0 0 1 .785-.78h3.499c.387 0 .712.281.773.663.529 3.566 2.102 5.364 9.27 5.364 5.71 0 8.138-1.29 8.138-4.318 0-1.743-.692-3.038-9.562-3.906-7.419-.732-12.004-2.367-12.004-8.301 0-5.466 4.612-8.721 12.336-8.721 8.674 0 12.973 3.011 13.516 9.481a.79.79 0 0 1-.21.604c-.149.156-.359.251-.576.251h-3.52c-.366 0-.685-.258-.76-.61-.848-3.75-2.896-4.951-8.464-4.951-6.232 0-6.958 2.17-6.958 3.798 0 1.974.854 2.55 9.264 3.662 8.328 1.105 12.282 2.665 12.282 8.518 0 5.9-4.923 9.284-13.509 9.284m33-33.156h.909c.746 0 .888-.522.888-.827 0-.8-.549-.8-.854-.8h-.936zm-1.105-2.564h2.014c.692 0 2.048 0 2.048 1.546 0 1.078-.692 1.302-1.105 1.438.807.054.861.583.97 1.329.054.468.142 1.275.305 1.546h-1.241l-.224-1.845c-.081-.332-.197-.495-.61-.495h-1.024v2.346h-1.132zm-2.421 2.916c0 2.428 1.96 4.394 4.367 4.394 2.428 0 4.388-2.007 4.388-4.394 0-2.435-1.987-4.367-4.394-4.367-2.374 0-4.367 1.906-4.367 4.361m9.603.02a5.24 5.24 0 0 1-5.222 5.222c-2.848 0-5.222-2.319-5.222-5.222 0-2.957 2.428-5.222 5.222-5.222a5.22 5.22 0 0 1 5.215 5.222"/></g><g fill-rule="evenodd"><path d="M64.382 61.408a3.47 3.47 0 0 0-1.735-3.014L33.923 41.867c-.485-.285-1.028-.434-1.579-.454h-.297c-.551.02-1.094.17-1.587.454L1.737 58.394C.667 59.018 0 60.164 0 61.411l.063 44.515c0 .617.319 1.194.861 1.499a1.64 1.64 0 0 0 1.723 0l17.076-9.779c1.078-.642 1.736-1.775 1.736-3.011V73.839a3.46 3.46 0 0 1 1.733-3.004l7.27-4.187a3.45 3.45 0 0 1 1.736-.467c.594 0 1.2.153 1.725.466l7.267 4.186a3.46 3.46 0 0 1 1.736 3.004v20.795c0 1.234.667 2.374 1.739 3.011l17.065 9.772c.536.319 1.202.319 1.736 0a1.74 1.74 0 0 0 .86-1.499zm135.54 23.177a.86.86 0 0 1-.434.75l-9.866 5.687a.87.87 0 0 1-.866 0l-9.867-5.687a.86.86 0 0 1-.434-.75v-11.39c0-.311.163-.597.427-.753l9.861-5.697c.271-.156.604-.156.875 0l9.867 5.697c.271.156.434.442.434.753zM202.587.22a1.74 1.74 0 0 0-1.725.018 1.74 1.74 0 0 0-.856 1.499v44.081c0 .434-.231.834-.606 1.051s-.838.217-1.214 0l-7.195-4.144c-1.071-.62-2.391-.62-3.467 0L158.79 59.308c-1.073.617-1.736 1.763-1.736 2.998v33.176c0 1.241.663 2.38 1.736 3.004l28.734 16.595c1.073.617 2.394.617 3.47 0l28.734-16.602c1.071-.624 1.736-1.763 1.736-3.004V12.792c0-1.259-.685-2.416-1.784-3.031zm95.685 72.675a3.47 3.47 0 0 0 1.725-2.999v-8.04a3.47 3.47 0 0 0-1.727-3.001l-28.551-16.574c-1.078-.624-2.401-.624-3.479 0l-28.727 16.581c-1.078.624-1.736 1.763-1.736 3.004v33.162a3.48 3.48 0 0 0 1.75 3.018l28.544 16.269a3.46 3.46 0 0 0 3.404.02l17.266-9.596c.543-.305.888-.882.888-1.505s-.332-1.207-.875-1.512l-28.903-16.588a1.72 1.72 0 0 1-.875-1.499V73.232a1.72 1.72 0 0 1 .868-1.503l8.993-5.188c.536-.312 1.194-.312 1.729 0l8.999 5.188a1.73 1.73 0 0 1 .868 1.499v8.179a1.75 1.75 0 0 0 .868 1.505c.536.305 1.2.305 1.736-.007z" fill="#333"/><path d="M267.56 71.343a.66.66 0 0 1 .665 0l5.514 3.181c.206.119.332.339.332.576v6.368c0 .237-.126.457-.332.576l-5.514 3.181a.66.66 0 0 1-.665 0l-5.51-3.181c-.21-.119-.339-.339-.339-.576V75.1c0-.237.122-.457.332-.576z" fill="#689f63"/></g><g transform="matrix(.67817 0 0 .67817 -53.105 -111.23)"><g clip-path="url(#A)"><path d="m331.36 246.79-118.72-58.19-60.87 124.17 118.71 58.193z" fill="url(#B)"/></g><g clip-path="url(#C)"><path d="m144.07 264 83.825 113.45 110.86-81.906-83.83-113.45z" fill="url(#D)"/></g><g clip-path="url(#E)"><path d="M197.02 225.93v107.43h91.683V225.93z" fill="url(#F)"/></g></g></svg>