<?xml version="1.0" encoding="UTF-8"?>
<svg width="274" height="246" preserveAspectRatio="xMidYMid" version="1.1" viewBox="0 0 274 246" xmlns="http://www.w3.org/2000/svg">
 <g transform="matrix(.68298 0 0 .68298 .23907 .25261)" stroke-width="1.5682">
  <path d="m0.75412 179.51c0 30.132 29.424 58.262 75.812 74.117-9.2634 46.635-1.6602 84.223 23.735 98.869 26.104 15.053 64.993 4.6333 101.9-27.631 35.979 30.962 72.343 43.147 97.715 28.459 26.079-15.097 34.011-55.234 24.491-103.32 48.316-15.974 75.343-39.96 75.343-70.489 0-29.434-29.478-54.898-75.241-70.652 10.248-50.078 1.5646-86.754-24.882-102-25.498-14.703-62.283-1.8878-98.792 29.885-37.981-33.724-74.403-44.02-100.82-28.725-25.473 14.745-32.742 53.015-23.448 100.51-44.822 15.628-75.812 41.667-75.812 70.983z" fill="#fff"/>
  <path d="m314.82 124.5c-3.6759-1.2652-7.4849-2.4624-11.407-3.5946 0.64461-2.6308 1.2362-5.2275 1.7623-7.7801 8.6348-41.914 2.989-75.681-16.289-86.798-18.486-10.66-48.717 0.45476-79.25 27.026-2.9361 2.5551-5.8803 5.2603-8.8233 8.0955-1.961-1.8758-3.9188-3.6885-5.8715-5.4224-31.999-28.412-64.073-40.385-83.333-29.236-18.468 10.691-23.937 42.435-16.164 82.157 0.75057 3.8368 1.6279 7.7549 2.6201 11.739-4.5394 1.2886-8.9217 2.6623-13.115 4.1237-37.515 13.08-61.475 33.578-61.475 54.841 0 21.96 25.72 43.987 64.795 57.343 3.0837 1.054 6.2834 2.0505 9.5809 2.9966-1.0704 4.3085-2.0013 8.5307-2.7828 12.649-7.4111 39.033-1.6235 70.027 16.795 80.65 19.025 10.971 50.954-0.30591 82.045-27.483 2.4574-2.1483 4.9235-4.4265 7.3941-6.8144 3.2022 3.0837 6.3994 6.0021 9.5796 8.7394 30.115 25.915 59.859 36.38 78.26 25.726 19.006-11.003 25.183-44.297 17.164-84.805-0.61245-3.0938-1.3252-6.2544-2.1256-9.4711 2.2423-0.66291 4.4435-1.3473 6.5899-2.0587 40.622-13.459 67.053-35.218 67.053-57.471 0-21.34-24.732-41.977-63.003-55.151z" fill="#53c1de"/>
  <path d="m306.01 222.75c-1.9376 0.64145-3.9257 1.2615-5.9516 1.8626-4.4845-14.197-10.537-29.294-17.944-44.891 7.068-15.226 12.887-30.13 17.246-44.235 3.6248 1.0489 7.1431 2.1552 10.533 3.3227 32.791 11.288 52.792 27.978 52.792 40.838 0 13.698-21.601 31.481-56.676 43.102zm-14.554 28.838c3.546 17.912 4.0525 34.107 1.7036 46.767-2.1104 11.376-6.3546 18.96-11.602 21.998-11.167 6.4638-35.048-1.9382-60.803-24.101-2.9525-2.5406-5.9264-5.2534-8.9098-8.1245 9.9845-10.92 19.963-23.615 29.703-37.714 17.13-1.5201 33.314-4.0052 47.991-7.3979 0.72282 2.9159 1.3649 5.7756 1.9181 8.5717zm-147.18 67.648c-10.91 3.8532-19.6 3.9635-24.853 0.93474-11.177-6.4467-15.824-31.332-9.4856-64.713 0.72597-3.8229 1.5901-7.7498 2.586-11.764 14.516 3.2098 30.581 5.5196 47.752 6.9116 9.8048 13.796 20.072 26.477 30.418 37.58-2.2606 2.1823-4.5123 4.26-6.7514 6.2178-13.748 12.017-27.525 20.544-39.667 24.832zm-51.114-96.57c-17.278-5.9056-31.547-13.581-41.328-21.956-8.7887-7.5266-13.226-14.999-13.226-21.062 0-12.903 19.237-29.361 51.32-40.547 3.8929-1.3573 7.9681-2.6365 12.197-3.838 4.4341 14.424 10.251 29.504 17.27 44.753-7.1103 15.476-13.01 30.796-17.487 45.389-3.0149-0.86662-5.9358-1.7787-8.7464-2.7386zm17.134-116.63c-6.6593-34.033-2.2366-59.707 8.8927-66.149 11.855-6.863 38.069 2.9222 65.697 27.455 1.7661 1.568 3.539 3.2092 5.3171 4.9071-10.295 11.055-20.469 23.641-30.186 37.355-16.665 1.5447-32.618 4.026-47.285 7.3487-0.92213-3.7094-1.7389-7.3537-2.4359-10.917zm152.85 37.743c-3.5062-6.0563-7.1058-11.969-10.775-17.721 11.306 1.4292 22.138 3.3265 32.311 5.6482-3.054 9.7877-6.8605 20.021-11.341 30.512-3.2142-6.1023-6.6139-12.255-10.194-18.44zm-62.332-60.711c6.9822 7.5644 13.975 16.01 20.852 25.173-6.9305-0.32735-13.947-0.49766-21.021-0.49766-7.0075 0-13.972 0.16652-20.86 0.4882 6.8845-9.0782 13.937-17.512 21.029-25.164zm-62.731 60.816c-3.5025 6.0733-6.839 12.193-10.003 18.323-4.4082-10.454-8.1794-20.735-11.26-30.661 10.11-2.2624 20.891-4.1124 32.125-5.5145-3.7213 5.8046-7.3506 11.761-10.862 17.851v1e-3zm11.186 90.459c-11.607-1.2949-22.55-3.0496-32.658-5.2496 3.1297-10.104 6.9841-20.604 11.486-31.283 3.172 6.1263 6.5218 12.248 10.046 18.335h6.4e-4c3.5895 6.2008 7.3083 12.275 11.126 18.198zm51.964 42.951c-7.1746-7.741-14.331-16.304-21.32-25.514 6.7848 0.26618 13.702 0.40241 20.732 0.40241 7.2225 0 14.362-0.16273 21.39-0.47556-6.9002 9.3765-13.867 17.953-20.802 25.588zm72.251-80.028c4.7362 10.795 8.7287 21.24 11.899 31.172-10.274 2.3438-21.367 4.2316-33.054 5.6344 3.6784-5.8292 7.3096-11.844 10.878-18.031 3.6097-6.2594 7.0371-12.528 10.278-18.775zm-23.39 11.213c-5.5391 9.6042-11.226 18.773-16.999 27.427-10.515 0.75183-21.378 1.1391-32.45 1.1391-11.027 0-21.753-0.34249-32.082-1.013-6.0059-8.7678-11.816-17.963-17.32-27.47h9.9e-4c-5.4893-9.4812-10.541-19.042-15.119-28.55 4.5766-9.5298 9.6155-19.102 15.073-28.566l-1e-3 2e-3c5.4722-9.4894 11.231-18.64 17.182-27.353 10.538-0.79663 21.345-1.2123 32.266-1.2123h6.4e-4c10.97 0 21.791 0.4188 32.326 1.2224 5.8595 8.6493 11.58 17.77 17.073 27.261 5.5562 9.5972 10.66 19.106 15.276 28.431-4.6018 9.4856-9.6944 19.09-15.226 28.683zm31.227-169.04c11.866 6.8428 16.48 34.44 9.0252 70.628-0.47557 2.3091-1.0111 4.6611-1.5926 7.0447-14.701-3.3921-30.665-5.9163-47.379-7.4843-9.7366-13.865-19.826-26.471-29.954-37.384 2.7229-2.6194 5.442-5.1171 8.1497-7.4742 26.16-22.766 50.611-31.755 61.751-25.331z" fill="#fff"/>
  <path d="m200.65 148.01c17.475 0 31.642 14.166 31.642 31.642 0 17.475-14.167 31.642-31.642 31.642s-31.642-14.167-31.642-31.642c0-17.476 14.167-31.642 31.642-31.642" fill="#53c1de"/>
 </g>
</svg>
